<svg xmlns="http://www.w3.org/2000/svg" xml:space="preserve" viewBox="366.64 284.6 1185.93 1186.1"><path fill="#f8ae4e" d="M830.082 1455.753c-7.76-1.66-15.605-3.007-23.27-5.033-41.502-10.973-81.294-26.48-119.427-46.138-32.752-16.884-63.647-36.792-92.639-59.517-49.887-39.105-92.426-85.095-127.84-137.69-28.315-42.048-50.651-87.102-67.38-134.884-12.447-35.546-21.225-72.049-26.648-109.363-5.333-36.687-7.53-73.59-5.487-110.532 1.42-25.672 4.084-51.425 8.492-76.74 4.463-25.632 10.779-51.055 18.056-76.053 9.033-31.026 21.785-60.729 36.367-89.626 20.252-40.133 44.724-77.513 73.445-112.015 33.704-40.489 72.12-76 115.324-106.252 26.09-18.268 53.407-34.476 82.04-48.402 30.884-15.02 62.913-27.092 95.926-36.598 28.009-8.064 56.486-13.9 85.349-17.638a555 555 0 0 1 49.184-4.176c17.938-.714 35.936-.571 53.89-.114 28.136.718 56.018 4.146 83.69 9.263 33.603 6.214 66.612 14.864 98.378 27.363 22.706 8.935 44.804 19.51 66.807 30.113 30.078 14.495 57.713 33.08 84.306 53.138 26.086 19.676 50.299 41.54 72.76 65.287 28.215 29.828 53.034 62.312 74.507 97.284 16.835 27.419 31.223 56.106 43.472 85.9 15.431 37.531 26.868 76.238 34.001 116.118 3.563 19.922 5.729 40.134 7.624 60.299 1.414 15.049 1.38 30.234 1.555 45.776-1.943-.866-3.547-2.05-4.943-3.445-40.192-40.156-80.355-80.343-120.575-120.473-1.445-1.443-3.411-2.363-5.12-3.545.015-.018.031.016-.023-.227-.218-.55-.462-.766-.891-1.034-.105-.144-.144-.498-.201-.792-.39-.484-.722-.673-1.344-1.028-19.653-19.498-39.015-38.831-58.403-58.51-.262-.947-.34-1.705-.759-2.126-17.37-17.52-34.715-35.065-52.217-52.453-3.324-3.303-7.286-5.965-11.233-9.11-4.097-4.564-7.681-9.174-11.77-13.282-27.486-27.622-55.061-55.154-82.646-82.678-12.258-12.23-24.098-24.944-37.039-36.41-15.765-13.968-34.893-22.642-54.382-30.03-65.273-24.747-132.56-35.28-202.302-27.462-37.112 4.16-72.419 14.276-105.211 32.34-13.993 7.707-21.106 20.176-21.165 36.045-.057 15.296 7.37 26.955 19.837 35.893.453.378.785.507 1.298.671.181.035.463.273.51.608 3.071 3.6 5.993 6.968 9.136 10.114 41.899 41.943 83.838 83.844 125.74 125.783 7.528 7.533 14.936 15.187 22.254 23.092-58.077 58.26-116.007 116.217-173.945 174.164-66.888 66.9-133.907 133.668-200.624 200.737-34.106 34.287-37.634 90.251-7.964 128.49 7.668 9.882 17.663 17.957 26.579 27.214 4.947 5.406 9.865 10.499 14.868 15.507 26.604 26.632 53.284 53.187 79.832 79.874 28.86 29.011 57.55 58.19 86.425 87.187 11.033 11.08 22.47 21.759 33.514 32.83 3.758 3.766 6.873 8.172 10.282 12.286"/><path fill="#e9714c" d="M830.373 1456.02c-3.7-4.38-6.815-8.787-10.573-12.554-11.044-11.07-22.48-21.749-33.514-32.83-28.874-28.996-57.565-58.175-86.425-87.186-26.548-26.687-53.228-53.242-79.832-79.874-5.003-5.008-9.921-10.1-14.519-15.445 19.737 11.543 40.44 17.82 63.456 16.005 22.606-1.783 42.6-9.841 59.013-25.16 18.503-17.271 35.982-35.638 53.891-53.544 121.953-121.93 243.91-243.857 365.797-365.852 2.572-2.574 5.041-3.892 8.723-3.57 9.467.832 18.581-.696 27.242-4.748 1.285-.602 2.757-.806 4.785-1.373.203 2.574.502 4.65.51 6.727.043 11.831-.081 23.664.044 35.494.116 11.028 4.432 20.398 12.128 28.155 14.87 14.989 29.897 29.822 44.783 44.797 17.966 18.073 43.388 18.536 60.945.995 19.843-19.824 39.662-39.672 59.507-59.494 15.737-15.718 31.517-31.39 47.238-47.124 11.014-11.024 15.598-24.154 12.278-39.579-.866-4.023-2.602-7.86-3.939-11.782 1.724 1.164 3.69 2.084 5.135 3.527 40.22 40.13 80.383 80.317 120.575 120.473 1.396 1.394 3 2.58 4.834 3.904.034 14.348.283 28.69-.667 42.952-1.836 27.576-5.715 54.897-11.46 81.967-8.705 41.017-21.597 80.63-38.744 118.884-23.313 52.007-53.549 99.591-90.554 142.943-43.21 50.62-93.522 92.71-150.808 126.507-61.14 36.07-126.791 60.024-196.61 72.47-27.713 4.94-55.695 7.605-83.87 8.624-50.023 1.81-99.366-3.12-148.241-13.525-.302-.065-.56-.34-1.128-.784"/><path fill="#394f63" d="M1421.926 748.06c1.322 3.94 3.058 7.777 3.924 11.8 3.32 15.425-1.264 28.555-12.278 39.579-15.72 15.733-31.501 31.406-47.238 47.124-19.845 19.822-39.664 39.67-59.507 59.494-17.557 17.541-42.979 17.078-60.945-.995-14.886-14.975-29.913-29.808-44.783-44.797-7.696-7.757-12.012-17.127-12.128-28.155-.125-11.83-.001-23.663-.045-35.494-.007-2.077-.306-4.153-.51-6.727-2.027.567-3.499.771-4.784 1.373-8.66 4.052-17.775 5.58-27.242 4.749-3.682-.323-6.151.995-8.723 3.569-121.887 121.995-243.844 243.92-365.797 365.852-17.909 17.906-35.388 36.273-53.89 53.543-16.413 15.32-36.408 23.378-59.014 25.16-23.017 1.816-43.719-4.46-63.446-16.356-9.275-8.967-19.27-17.042-26.938-26.924-29.67-38.239-26.142-94.203 7.964-128.49 66.717-67.07 133.736-133.838 200.624-200.737a953913 953913 0 0 0 174.234-174.31c11.957-11.997 23.485-23.535 34.998-35.086 1.614-1.62 3.56-2.938 1.531-5.825-9.66-13.745-10.374-28.955-7.386-44.9 3.667-19.566 1.824-29.437-19.77-41.87-10.945-6.303-23.195-11.006-35.433-14.265-30.78-8.197-62.449-10.891-94.19-12.249-12.59-.539-25.283.24-37.216-4.983 0 0-.282-.238-.59-.514-.637-.41-.964-.544-1.291-.678-12.347-8.69-19.774-20.349-19.717-35.645.059-15.87 7.172-28.338 21.165-36.045 32.792-18.064 68.1-28.18 105.21-32.34 69.742-7.818 137.03 2.715 202.303 27.461 19.489 7.389 38.617 16.063 54.382 30.03 12.94 11.467 24.781 24.18 37.04 36.411 27.584 27.524 55.159 55.056 82.645 82.678 4.089 4.108 7.673 8.718 11.747 13.648 9.785 19.374 10.03 38.32-.019 57.767 11.824 0 22.631.317 33.411-.089 10.834-.408 21.197.786 30.865 5.991 19.363 19.333 38.725 38.666 58.499 58.413.7.634.99.854 1.28 1.073 0 0 .04.354.155.767.39.61.662.81.934 1.008 0 0-.016-.034-.031-.016M1166.74 549.338c-.58-.144-1.16-.289-1.73-.35 0 0 .082-.014.406-.688-3.596-3.423-7.652-6.48-10.706-10.33-12.433-15.684-28.496-26.214-46.616-34.055-48.458-20.968-99.192-31.309-151.867-32.28-31.294-.577-62.065 3.222-92.81 12.433l-38.054 15.407.506 1.455c3.76.294 7.514.757 11.279.854 33.493.865 66.75 3.981 99.473 11.337 24.339 5.47 47.9 13.151 67.703 29.176 14.506 11.738 26.05 25.981 27.89 45.075 1.131 11.73-.885 23.79-1.805 35.677-.354 4.574.061 8.464 3.586 11.837 5.645 5.402 11.016 11.091 16.572 16.59 12.759 12.628 25.56 25.215 38.461 38.455 12.838 12.937 25.645 25.903 38.538 38.784 2.645 2.643 5.612 4.963 8.698 8.028 5.102 5.133 10.118 10.356 15.336 15.37 3.425 3.29 8.032 4.054 12.042 2.305 4.088-1.784 8.073-4.59 11.086-7.879 5.203-5.681 11.322-6 18.14-5.084 8.705 1.17 13.361 7.971 19.055 13.357 6.065 5.737 12.134 11.468 18.164 18.136-.018 17.926-.083 35.852.018 53.777.01 1.816.48 4.155 1.654 5.357 8.918 9.135 18.063 18.046 27.448 27.613l17.029 17.155 108.005-107.927c-5.503-5.824-11.29-11.949-17.43-18.64-8.537-8.593-17.034-17.229-25.661-25.733-1.193-1.176-3.026-2.414-4.566-2.419-19.085-.054-38.171.115-58.167-.005-4.307.31-8.029-.55-11.21-3.948-5.988-6.396-12.382-12.41-18.448-18.735-6.092-6.351-5.203-13.763-1.509-20.553 3.192-5.867 7.516-11.202 11.85-16.342 3.956-4.694 6.066-10.664 3.051-15.128-4.877-7.224-11.832-13.046-18.065-20.142-15.692-15.758-31.384-31.516-47.418-47.843-8.527-8.497-17.053-16.994-25.83-25.946-.289-.187-.577-.374-.835-.48 0 0 .083-.029-.266-.623-.584-.154-1.169-.308-1.75-.374 0 0 .089.002.417-.614-.463-.495-.925-.99-1.387-1.412 0 0 .072-.013-.277-.648m-105.45 171.784-33.163-31.768c-.661.632-1.875 1.749-3.04 2.913-55.722 55.686-111.447 111.37-167.158 167.068-79.738 79.72-159.444 159.473-239.226 239.149-9.734 9.722-16.497 20.942-18.231 34.665-2.24 17.722 1.877 33.669 14.77 47.478 1.357 1.466 2.7 2.946 4.074 4.396 22.94 24.21 61.112 23.817 82.847 1.558 15.326-15.696 31.015-31.037 46.54-46.537l79.058-78.921c16.113-16.085 32.22-32.177 48.346-48.249 12.233-12.192 24.5-24.35 36.737-36.538 8.12-8.088 16.242-16.173 24.31-24.313 9.478-9.563 18.833-19.248 28.358-28.765 11.864-11.853 23.902-23.532 35.763-35.389 12.461-12.457 24.766-25.071 37.205-37.551 11.847-11.887 23.783-23.686 35.672-35.53 12.354-12.309 24.63-24.697 37.103-36.883 2.756-2.692 3.024-4.358.125-7.214-15.909-15.67-31.618-31.542-47.424-47.317-.675-.673-1.624-1.07-2.665-2.252"/><path fill="#e7724d" d="M803.984 538.475c11.887 4.888 24.58 4.11 37.17 4.648 31.741 1.358 63.41 4.052 94.19 12.25 12.238 3.258 24.488 7.961 35.434 14.263 21.593 12.434 23.436 22.305 19.77 41.87-2.99 15.946-2.276 31.156 7.385 44.901 2.029 2.887.083 4.206-1.53 5.825-11.514 11.551-23.042 23.09-34.854 34.778-7.752-7.451-15.16-15.105-22.687-22.638-41.903-41.939-83.842-83.84-125.74-125.783-3.144-3.146-6.066-6.514-9.138-10.114"/><path fill="#e1744e" d="M1361.064 686.469c-9.643-4.859-20.006-6.053-30.84-5.645-10.78.406-21.587.09-33.41.09 10.048-19.448 9.803-38.394.298-57.581 3.69 2.592 7.652 5.254 10.976 8.557 17.502 17.388 34.847 34.933 52.217 52.453.418.421.497 1.179.759 2.126"/><path fill="#e48542" d="M1061.511 721.778c.822.525 1.771.923 2.446 1.596 15.806 15.775 31.515 31.647 47.424 47.317 2.9 2.856 2.631 4.522-.125 7.214-12.473 12.186-24.749 24.574-37.103 36.882-11.889 11.845-23.825 23.644-35.672 35.53-12.439 12.481-24.744 25.095-37.205 37.552-11.86 11.857-23.899 23.536-35.763 35.39-9.525 9.516-18.88 19.2-28.358 28.764-8.068 8.14-16.19 16.225-24.31 24.313-12.237 12.188-24.504 24.346-36.737 36.538-16.126 16.072-32.233 32.164-48.346 48.249q-39.53 39.46-79.057 78.921c-15.526 15.5-31.215 30.841-46.54 46.537-21.736 22.259-59.907 22.653-82.848-1.558-1.374-1.45-2.717-2.93-4.185-5.108.982-9.652 6.291-16.45 12.074-22.59 17.918-19.03 35.954-37.963 54.422-56.457 119.248-119.414 238.614-238.71 357.973-358.013 7.166-7.163 14.6-14.058 21.91-21.077"/><path fill="#fdfbf1" d="M1061.401 721.45c-7.2 7.347-14.634 14.242-21.8 21.405-119.359 119.304-238.725 238.599-357.973 358.013-18.468 18.494-36.504 37.427-54.422 56.456-5.783 6.14-11.092 12.94-12.167 22.27-12.69-12.776-16.805-28.723-14.566-46.445 1.734-13.723 8.497-24.943 18.231-34.665 79.782-79.676 159.488-159.429 239.226-239.149 55.71-55.698 111.436-111.382 167.158-167.068 1.165-1.164 2.379-2.28 3.04-2.913 11.142 10.673 22.153 21.22 33.273 32.096"/><path fill="#76bcce" d="M1171.09 553.944c8.526 8.497 17.052 16.994 25.6 26.077-3.226 3.889-6.441 7.225-9.729 10.488-14.15 14.044-28.339 28.048-42.479 42.102-13.618 13.537-27.25 27.06-40.76 40.707-5.105 5.158-9.883 10.642-14.81 15.977-12.784-12.604-25.585-25.19-38.344-37.82-5.556-5.498-10.927-11.187-16.572-16.59-3.525-3.372-3.94-7.262-3.586-11.836.92-11.887 2.936-23.947 1.805-35.677-1.84-19.094-13.384-33.337-27.89-45.075-19.803-16.025-43.364-23.705-67.703-29.176-32.723-7.356-65.98-10.472-99.473-11.337-3.765-.097-7.52-.56-11.279-.854l-.506-1.455c12.685-5.136 25.37-10.271 38.7-15.085 3.127.275 5.621.376 8.087.153 12.224-1.103 24.44-3.238 36.66-3.256 26.413-.04 52.912-.107 79.213 1.936 20.583 1.6 41.145 5.37 61.32 9.93 35.676 8.064 68.564 23.045 98.742 43.808 5.717 3.934 11.34 8.005 17.007 12.013 0 0-.083.014.05.267.738.413 1.342.572 1.947.732 0 0-.072.013-.066.29.356.768.704 1.26 1.053 1.75 0 0-.089 0 .092.204.76.39 1.34.577 1.918.763 0 0-.083.03.071.176.413.36.672.575.932.788"/><path fill="#75bcce" d="M1258.897 859.11c-9.074-8.982-18.22-17.893-27.137-27.028-1.173-1.202-1.644-3.54-1.654-5.357-.101-17.925-.036-35.851.325-54.292 15.186-15.385 30.041-30.242 44.85-45.145 1.493-1.501 2.705-3.28 4.047-4.93 19.086-.112 38.172-.281 57.257-.227 1.54.005 3.373 1.243 4.566 2.419 8.627 8.504 17.124 17.14 25.662 26.325-3.047 3.386-6.191 6.083-9.124 8.993-10.944 10.859-21.82 21.786-32.72 32.688s-21.83 21.775-32.69 32.715c-11.163 11.245-22.257 22.556-33.382 33.838"/><path fill="#5ba2b8" d="M1088.97 689.613c4.869-5.653 9.647-11.137 14.753-16.295 13.509-13.646 27.14-27.17 40.76-40.707 14.14-14.054 28.329-28.058 42.478-42.102 3.288-3.263 6.503-6.599 9.9-10.203 15.842 15.456 31.534 31.214 46.967 47.435-.772.884-1.326 1.264-1.793 1.73-34.532 34.52-69.06 69.045-103.571 103.588-.925.926-1.649 2.054-2.466 3.088-2.819-2.469-5.786-4.789-8.43-7.432a3866 3866 0 0 1-38.598-39.102"/><path fill="#437b95" d="M1136.132 736.445c.683-1.332 1.407-2.46 2.332-3.386 34.51-34.543 69.039-69.067 103.571-103.588.467-.466 1.021-.846 1.871-1.39 6.414 6.293 13.369 12.115 18.246 19.339 3.015 4.464.905 10.434-3.052 15.128-4.333 5.14-8.657 10.475-11.849 16.342-3.694 6.79-4.583 14.202 1.509 20.553 6.066 6.325 12.46 12.339 18.448 18.735 3.181 3.399 6.903 4.258 11.665 4.064-.887 1.766-2.1 3.545-3.592 5.046-14.809 14.903-29.664 29.76-44.831 44.678-6.392-5.686-12.461-11.417-18.526-17.154-5.694-5.386-10.35-12.186-19.055-13.357-6.818-.916-12.937-.597-18.14 5.084-3.013 3.29-6.998 6.095-11.086 7.879-4.01 1.75-8.617.985-12.042-2.306-5.218-5.013-10.234-10.236-15.47-15.667"/><path fill="#5ca1b7" d="M1259.053 859.402c10.969-11.575 22.063-22.886 33.225-34.13 10.861-10.941 21.791-21.814 32.691-32.716s21.776-21.83 32.72-32.688c2.933-2.91 6.077-5.607 9.3-8.71 5.963 5.816 11.75 11.941 17.253 17.765L1276.237 876.85c-5.397-5.437-11.213-11.296-17.184-17.448"/><path fill="#ecf9fb" d="M1165.255 548.637c-5.829-3.671-11.452-7.742-17.17-11.676-30.177-20.763-63.065-35.744-98.741-43.807-20.175-4.56-40.737-8.332-61.32-9.931-26.3-2.043-52.8-1.975-79.213-1.936-12.22.018-24.436 2.153-36.66 3.256-2.466.223-4.96.122-7.709-.113 29.721-9.573 60.492-13.372 91.786-12.795 52.675.971 103.409 11.312 151.867 32.28 18.12 7.84 34.183 18.371 46.616 34.054 3.054 3.852 7.11 6.908 10.544 10.668m4.658 4.046c-.405.11-.984-.075-1.746-.51.402-.095.987.059 1.746.51m-1.673-.977c-.512-.184-.86-.675-1.216-1.48.456.182.918.677 1.217 1.48m-1.326-2.051c-.43.158-1.034 0-1.776-.455.442-.15 1.022-.006 1.776.455m4.049 4.062c-.134.014-.393-.2-.822-.602.12 0 .408.187.822.602"/></svg>